<svg width="113" height="35" viewBox="0 0 113 35" fill="none" xmlns="http://www.w3.org/2000/svg">
<path d="M0.0332031 21.2184L1.19908 5.97363C4.26799 7.09934 10.7744 7.07358 12.0893 6.10758C11.8331 7.31057 11.5665 8.51356 11.4305 9.732C11.2528 11.3059 11.1168 12.4651 11.0097 13.3873C10.6568 13.6707 10.6202 14.2323 10.5836 14.5749C10.5104 15.2498 10.2725 15.8629 10.73 16.2956C10.6907 17.0143 10.6829 17.7253 10.696 18.7531C10.7143 20.461 11.522 22.0659 13.2185 23.4363C13.4773 23.6475 13.7492 23.8484 14.0289 24.0391C9.27654 24.0391 2.28653 22.9417 0.0332031 21.2184H0.0332031Z" fill="black"/>
<path fill-rule="evenodd" clip-rule="evenodd" d="M11.0105 13.3874L7.94156 10.9093C7.78472 10.7831 7.5024 10.7444 7.37954 10.8861L6.76262 11.5893C6.63976 11.731 6.611 11.8985 6.76784 12.0221L10.0642 14.6883L6.95344 16.9809C6.80183 17.0942 6.85934 17.2462 6.95867 17.4137L7.46319 18.2663C7.55991 18.4337 7.77165 18.4801 7.92326 18.3668L10.7308 16.2957C10.7621 15.7212 10.8144 15.1468 10.8955 14.4049C10.9294 14.0984 10.966 13.7635 11.0105 13.3874Z" fill="#FEFEFE"/>
<path d="M31.5217 35C32.0864 35 32.1622 34.5724 32.2249 34.1654L36.8963 3.58064C36.2976 3.3591 35.7252 3.1556 35.1762 2.9624L30.8996 34.2246C30.8473 34.6188 31.0904 35 31.5217 35Z" fill="black"/>
<path d="M20.8336 18.6861C17.8693 18.2225 14.803 18.104 11.9902 18.596C12.0373 15.6928 12.2752 12.7923 12.7117 9.91746C13.1613 6.9628 13.8227 4.0442 14.7062 1.18485C17.4196 0.151875 20.3683 -0.13406 23.3013 0.0539871C26.9322 0.288402 30.5396 1.24925 33.6608 2.42132L30.9762 21.5919C28.2785 20.4404 24.6371 19.2786 20.8336 18.6861Z" fill="black"/>
<path d="M17.7148 19.6162C17.7226 20.7986 17.7749 22.1999 17.9082 24.508C16.7842 24.2298 15.2759 23.4518 14.0394 22.4524C13.0644 21.6641 12.2828 20.7522 12.0527 19.8815C13.8512 19.5492 15.7752 19.4874 17.7148 19.6162Z" fill="black"/>
<path fill-rule="evenodd" clip-rule="evenodd" d="M16.7649 4.66485C18.8614 4.23209 20.9527 4.0595 22.9969 4.27588C25.0463 4.49484 27.0382 5.05898 28.9726 5.84723C29.1242 5.90906 29.2 6.10483 29.1687 6.24909C29.1086 6.50669 29.051 6.76429 28.9935 7.02446C28.9622 7.16872 28.8315 7.21251 28.6851 7.15584C26.7559 6.43198 24.7797 5.90133 22.7511 5.68237C20.7279 5.46599 18.6575 5.59994 16.5872 5.98376C16.4329 6.0121 16.3258 5.95285 16.3441 5.80859C16.3781 5.54842 16.4147 5.28567 16.4512 5.02034C16.4695 4.87351 16.6107 4.69577 16.7649 4.66485ZM15.701 12.7277C16.548 12.6788 17.3949 12.6607 18.2367 12.6891C19.081 12.7174 19.9201 12.7921 20.7592 12.8771C20.9004 12.8926 20.9945 13.0343 20.9683 13.1888C20.9213 13.467 20.8769 13.7478 20.8324 14.0234C20.8089 14.1806 20.6756 14.2913 20.5344 14.2759C19.7058 14.1831 18.8745 14.0981 18.0406 14.0492C17.2093 14.0028 16.3728 13.9899 15.5389 13.9977C15.3978 13.9977 15.2984 13.8869 15.3141 13.7504C15.3455 13.5005 15.3795 13.2532 15.4108 13.0033C15.4291 12.8617 15.5599 12.7354 15.701 12.7277ZM16.4016 7.38252C17.7112 7.13008 19.0261 6.9987 20.3253 7.02704C21.6219 7.05537 22.9106 7.22024 24.1889 7.41859C24.3353 7.44177 24.4294 7.59376 24.4006 7.74832C24.3483 8.0291 24.2934 8.30731 24.2438 8.58551C24.215 8.74007 24.0739 8.84311 23.9301 8.81993C22.6649 8.62673 21.3918 8.46187 20.1083 8.41807C18.8222 8.37428 17.523 8.4799 16.2264 8.69371C16.0774 8.71689 15.9729 8.64476 15.9912 8.50051C16.0225 8.24291 16.0565 7.98531 16.0931 7.72513C16.1114 7.58088 16.2473 7.41086 16.4016 7.38252ZM22.2519 13.0703C22.7172 13.1399 23.1798 13.2146 23.6399 13.297C23.7811 13.3202 23.87 13.4696 23.8412 13.6242C23.7889 13.9049 23.7366 14.1831 23.687 14.4614C23.6582 14.6159 23.5249 14.7215 23.3864 14.6983C22.9263 14.6211 22.4688 14.5438 22.0087 14.4742C21.8702 14.4536 21.7813 14.3094 21.8075 14.1548C21.8545 13.874 21.9042 13.5958 21.9512 13.315C21.9774 13.1631 22.1133 13.0497 22.2519 13.0703ZM16.0461 10.077C17.6746 9.88639 19.3032 9.83229 20.9108 9.96367C22.5237 10.095 24.1105 10.3887 25.6894 10.721C25.8279 10.7493 25.9194 10.9039 25.888 11.0585C25.8331 11.3315 25.7756 11.6097 25.7233 11.8854C25.692 12.0399 25.556 12.1378 25.4149 12.1095C23.8517 11.7926 22.2806 11.5067 20.686 11.3599C19.0967 11.2156 17.4864 11.2362 15.8762 11.3676C15.7324 11.3779 15.6304 11.2903 15.6487 11.1486C15.6801 10.8962 15.7141 10.6412 15.7454 10.3861C15.7664 10.2445 15.8997 10.0925 16.0461 10.077ZM25.6135 7.70452C26.5468 7.93379 27.4721 8.20942 28.3792 8.55718C28.523 8.61385 28.6014 8.79417 28.5701 8.93842C28.5125 9.1986 28.4576 9.46393 28.4001 9.7241C28.3688 9.86836 28.2302 9.93533 28.0917 9.88639C27.1872 9.57212 26.2697 9.31452 25.3443 9.09556C25.2005 9.06207 25.109 8.91524 25.1378 8.76068C25.1901 8.48247 25.245 8.20427 25.2972 7.92864C25.3286 7.77408 25.4724 7.66846 25.6135 7.70452Z" fill="#FEFEFE"/>
<path d="M51.6967 12.4935C51.5451 12.7511 51.3438 12.8721 51.0824 12.8129C50.7138 12.7201 50.6981 12.1895 50.6981 11.4631V3.01123C50.6981 3.01123 50.5439 3.01123 50.2825 3.01123C49.3414 3.8304 47.773 4.19619 46.879 4.19619C46.879 4.36105 46.879 4.43833 46.879 4.61865C48.0501 4.61865 48.2043 5.40948 48.2043 6.36517V7.39557C47.8017 7.00144 47.2475 6.69747 46.5705 6.60732C44.2309 6.28789 42.5684 8.04729 42.5684 10.1879C42.5684 12.326 44.2466 13.7686 46.5705 13.7686C47.326 13.7686 47.9873 13.4801 48.4814 13.055C48.8029 13.5548 49.3885 13.7686 50.1884 13.7686C51.051 13.7686 51.5895 13.4182 51.9607 12.6454L51.6967 12.4935ZM47.109 13.1761C46.1705 13.3281 45.4308 12.2513 45.1092 10.4455C44.7851 8.62432 45.1092 7.36466 46.032 7.19979C46.9704 7.04781 47.7102 8.12457 48.0344 9.93034C48.3559 11.749 48.0344 13.0087 47.109 13.1761ZM59.2592 11.2493C57.9051 12.6918 54.9329 12.4471 54.5643 10.4919L59.3193 9.70108C59.3977 7.69954 58.0123 6.60732 55.9498 6.60732C53.6389 6.60732 51.7751 8.03441 51.9921 10.4765C52.1463 12.2977 53.686 13.7686 56.0099 13.7686C57.9051 13.7686 59.0134 12.5991 59.5206 11.4631C59.5206 11.4476 59.2592 11.2493 59.2592 11.2493ZM55.6727 7.15343C56.734 7.06327 57.0712 8.01896 56.9954 9.47439L54.4702 9.89943C54.2846 8.45688 54.7002 7.24359 55.6727 7.15343ZM64.8951 6.7593C64.8951 6.7593 64.8951 6.95507 64.8951 7.16888C65.7107 7.16888 66.0505 7.32087 65.7107 8.15549L64.4481 11.2493L63.1097 8.15549C62.8326 7.41102 63.0313 7.16888 63.724 7.16888C63.724 7.04781 63.724 6.7593 63.724 6.7593H59.2147C59.2147 6.7593 59.2147 6.95507 59.2147 7.16888C59.9833 7.16888 60.1845 7.5321 60.493 8.15549L62.9999 13.632H64.0324L66.2649 8.15549C66.5106 7.54755 66.8347 7.16888 67.6033 7.16888C67.6033 7.04781 67.6033 6.7593 67.6033 6.7593H64.8951ZM74.4417 11.2493C73.0876 12.6918 70.1154 12.4471 69.7468 10.4919L74.5044 9.70108C74.5802 7.69954 73.1947 6.60732 71.1322 6.60732C68.8214 6.60732 66.9602 8.03441 67.1746 10.4765C67.3288 12.2977 68.8685 13.7686 71.1924 13.7686C73.0876 13.7686 74.1959 12.5991 74.7031 11.4631C74.7031 11.4476 74.4417 11.2493 74.4417 11.2493ZM70.8552 7.15343C71.9165 7.06327 72.2563 8.01896 72.1779 9.47439L69.6527 9.89943C69.4697 8.45688 69.8853 7.24359 70.8552 7.15343ZM78.5222 11.4759V3.01123C78.5222 3.01123 78.368 3.01123 78.1066 3.01123C77.1681 3.8304 75.5971 4.19619 74.7057 4.19619C74.7057 4.36105 74.7057 4.43833 74.7057 4.61865C75.8742 4.61865 76.0284 5.40948 76.0284 6.36517V11.4759C76.0284 12.4316 75.8742 13.2225 74.7057 13.2225C74.7057 13.4028 74.7057 13.632 74.7057 13.632H79.8475C79.8475 13.632 79.8475 13.4028 79.8475 13.2225C78.6608 13.2225 78.5222 12.4316 78.5222 11.4759ZM83.6981 6.60732C81.3715 6.60732 79.6933 8.04729 79.6933 10.1879C79.6933 12.326 81.3715 13.7686 83.6981 13.7686C86.0063 13.7686 87.6845 12.326 87.6845 10.1879C87.6845 8.04729 86.0063 6.60732 83.6981 6.60732ZM84.2209 13.1761C83.2981 13.3281 82.5583 12.2513 82.2342 10.4455C81.9127 8.62432 82.2185 7.36466 83.1596 7.19979C84.098 7.03235 84.8378 8.10912 85.1593 9.93034C85.4835 11.749 85.1593 13.0087 84.2209 13.1761ZM93.1218 6.60732C92.4447 6.69747 91.8879 7.00144 91.488 7.39557V6.60732C91.488 6.60732 91.3364 6.60732 91.0723 6.60732C90.1496 7.41102 88.5785 7.78969 87.6871 7.78969C87.6871 7.95713 87.6871 8.01896 87.6871 8.19928C88.8556 8.19928 89.0098 8.99011 89.0098 9.9458V15.0566C89.0098 16.0123 88.8556 16.8031 87.6871 16.8031C87.6871 16.9834 87.6871 17.2281 87.6871 17.2281H93.059C93.059 17.2281 93.059 16.9834 93.059 16.8031C91.8879 16.8031 91.488 16.0123 91.488 15.0566V12.8412C91.9193 13.2972 92.4892 13.663 93.2603 13.7686C95.5999 14.1009 97.1239 12.326 97.1239 10.1879C97.1239 8.04729 95.4614 6.28789 93.1218 6.60732ZM93.6603 13.2379C92.7218 13.3899 91.9977 12.3106 91.6579 10.5074C91.3364 8.68614 91.6579 7.42648 92.5963 7.25904C93.5374 7.0916 94.2589 8.17094 94.583 9.98959C94.9072 11.8108 94.5987 13.0705 93.6603 13.2379ZM104.885 11.2493C103.531 12.6918 100.559 12.4471 100.19 10.4919L104.945 9.70108C105.024 7.69954 103.638 6.60732 101.576 6.60732C99.2648 6.60732 97.401 8.03441 97.618 10.4765C97.7722 12.2977 99.3119 13.7686 101.636 13.7686C103.531 13.7686 104.639 12.5991 105.146 11.4631C105.146 11.4476 104.885 11.2493 104.885 11.2493ZM101.299 7.15343C102.36 7.06327 102.697 8.01896 102.621 9.47439L100.096 9.89943C99.9105 8.45688 100.326 7.24359 101.299 7.15343ZM111.645 6.60732C110.505 6.42442 109.766 7.04781 109.274 7.97259V6.60732C109.274 6.60732 109.12 6.60732 108.858 6.60732C107.92 7.41102 106.365 7.78969 105.455 7.78969C105.455 7.95713 105.455 8.01896 105.455 8.19928C106.642 8.19928 106.78 8.99011 106.78 9.9458V11.4759C106.78 12.4316 106.642 13.2225 105.455 13.2225C105.455 13.4028 105.455 13.632 105.455 13.632H110.537C110.537 13.632 110.537 13.5393 110.537 13.2225C109.366 13.2225 109.274 12.4316 109.274 11.4759V8.9592C109.334 8.27656 109.888 7.89789 110.581 8.10912C111.182 8.30747 111.182 8.9592 111.028 9.48985C111.538 9.67275 112.476 9.53622 112.845 8.65523C113.185 7.7897 112.753 6.79021 111.645 6.60732Z" fill="black"/>
<path d="M54.099 28.609C54.099 28.609 53.9814 27.6688 53.6546 25.371C53.2364 22.4756 51.9764 21.2365 49.6237 21.2365C47.7338 21.2365 46.6149 22.0634 45.917 23.0268V21.2365C45.917 21.2365 45.6843 21.2365 45.287 21.2365C43.8885 22.455 41.5123 23.0268 40.1582 23.0268C40.1582 23.2819 40.1582 23.372 40.1582 23.6477C41.9305 23.6477 42.1632 24.8429 42.1632 26.2906V28.609C42.1632 30.0567 41.9305 31.252 40.1582 31.252C40.1582 31.5276 40.1582 31.8702 40.1582 31.8702H47.8279C47.8279 31.8702 47.8279 31.7337 47.8279 31.252C46.0555 31.252 45.917 30.0567 45.917 28.609V25.8295C45.917 24.2917 46.4999 23.0732 47.8985 23.0732C49.5061 23.0732 49.6682 24.3148 49.8799 25.6698C50.0185 26.5199 50.3452 28.609 50.3452 28.609C50.5073 30.0104 50.4864 31.252 48.714 31.252C48.714 31.5276 48.714 31.8702 48.714 31.8702H56.1955C56.1955 31.8702 56.1955 31.7337 56.1955 31.252C54.4232 31.252 54.2846 29.964 54.099 28.609ZM68.9704 30.6775C68.4345 30.93 67.9222 30.9068 67.666 30.608C67.4334 30.3092 67.2922 29.3895 67.1537 28.5858C67.1537 28.5858 67.036 27.6688 66.7093 25.3478C66.291 22.455 64.7513 21.2365 61.0237 21.2365C59.6931 21.2365 57.6672 21.6049 57.1078 23.0964C56.781 23.9001 57.0372 24.5441 57.6437 24.8429C58.2946 25.1417 59.2513 25.0722 59.8107 24.0856C58.9011 23.3488 59.5781 21.9243 61.0472 22.0402C62.2105 22.0402 62.6313 23.2587 62.8405 24.4282C63.0966 26.015 61.7452 25.5539 59.5546 25.9918C56.8046 26.5431 55.9419 28.1041 56.2687 29.7811C56.5954 31.4581 58.4122 32.0789 60.3466 32.0789C61.5125 32.0789 62.8169 31.8032 63.6325 30.5616C63.9828 31.6641 65.4519 32.0789 66.7093 32.0789C68.0163 32.0789 68.7378 31.6641 69.1586 31.1824C69.0881 30.9532 69.0645 30.93 68.9704 30.6775ZM62.0013 30.6544C61.1387 30.8836 60.0905 30.2396 59.9284 29.1835C59.7637 28.0114 60.4643 27.1613 61.4654 26.8651C62.6548 26.5431 62.911 26.4272 63.0966 26.0588C63.1907 26.6332 63.2848 27.4833 63.3528 28.3102C63.4234 29.4127 63.1202 30.4019 62.0013 30.6544ZM75.9892 29.3226C75.6389 29.897 75.1501 30.1726 74.5436 30.0799C73.9842 29.964 73.5895 29.6652 73.5895 28.5858V22.3622H76.0598V21.4658H73.5895V17.5838C73.5895 17.5838 73.2627 17.5838 72.8654 17.5838C72.3766 20.0645 70.301 21.3524 67.9954 21.4658C67.9954 21.7414 67.9954 22.3622 67.9954 22.3622H69.8122C69.8122 23.0732 69.8122 28.4029 69.8122 28.4029C69.8122 30.8604 71.3283 32.0789 73.1921 32.0789C74.9174 32.0789 75.8271 30.9764 76.431 29.5518L75.9892 29.3226ZM82.425 28.609V21.2365C82.425 21.2365 82.2159 21.2365 81.795 21.2365C80.3965 22.4756 78.0203 23.0268 76.6689 23.0268C76.6689 23.2819 76.6689 23.372 76.6689 23.6477C78.4386 23.6477 78.6712 24.8429 78.6712 26.2906V28.609C78.6712 30.0567 78.4386 31.252 76.6689 31.252C76.6689 31.5276 76.6689 31.8702 76.6689 31.8702H84.3594C84.3594 31.8702 84.3594 31.7337 84.3594 31.252C82.5636 31.252 82.425 30.0567 82.425 28.609ZM80.1639 20.1572C81.4448 20.1572 82.4956 19.168 82.4956 17.9753C82.4956 16.7801 81.4448 15.7935 80.1639 15.7935C78.883 15.7935 77.8321 16.7801 77.8321 17.9753C77.8321 19.168 78.883 20.1572 80.1639 20.1572ZM90.4215 21.2365C86.9029 21.2365 84.362 23.4184 84.362 26.6564C84.362 29.897 86.9029 32.0789 90.4215 32.0789C93.9191 32.0789 96.4599 29.897 96.4599 26.6564C96.4599 23.4184 93.9191 21.2365 90.4215 21.2365ZM91.2135 31.1824C89.815 31.4117 88.6962 29.7811 88.2073 27.048C87.7185 24.2917 88.1838 22.3854 89.6059 22.133C91.0279 21.8805 92.1467 23.5111 92.6356 26.2674C93.127 29.0238 92.6356 30.93 91.2135 31.1824ZM110.866 28.609C110.866 28.609 110.748 27.6688 110.424 25.371C110.003 22.4756 108.746 21.2365 106.391 21.2365C104.503 21.2365 103.385 22.0634 102.684 23.0268V21.2365C102.684 21.2365 102.451 21.2365 102.057 21.2365C100.658 22.455 98.2793 23.0268 96.9279 23.0268C96.9279 23.2819 96.9279 23.372 96.9279 23.6477C98.7002 23.6477 98.9328 24.8429 98.9328 26.2906V28.609C98.9328 30.0567 98.7002 31.252 96.9279 31.252C96.9279 31.5276 96.9279 31.8702 96.9279 31.8702H104.595C104.595 31.8702 104.595 31.7337 104.595 31.252C102.825 31.252 102.684 30.0567 102.684 28.609V25.8295C102.684 24.2917 103.267 23.0732 104.665 23.0732C106.273 23.0732 106.438 24.3148 106.647 25.6698C106.788 26.5199 107.112 28.609 107.112 28.609C107.277 30.0104 107.253 31.252 105.481 31.252C105.481 31.5276 105.481 31.8702 105.481 31.8702H112.965C112.965 31.8702 112.965 31.7337 112.965 31.252C111.193 31.252 111.052 29.964 110.866 28.609Z" fill="black"/>
</svg>
