<svg width="166" height="34" viewBox="0 0 166 34" fill="none" xmlns="http://www.w3.org/2000/svg">
<path d="M65.3862 11.5031V27.1786H69.0382V6.80518H63.9808L57.5565 21.9393L51.3149 6.80518H46.0527V27.1786H49.4889V11.5031H49.6051L56.1953 27.1786H58.7849L65.2645 11.5031H65.3862Z" fill="black"/>
<path d="M74.3182 6.36989C73.7501 6.35959 73.201 6.56574 72.791 6.94319C72.5857 7.12561 72.4229 7.34759 72.3132 7.59459C72.2036 7.84158 72.1495 8.10802 72.1547 8.37644C72.1492 8.64051 72.2027 8.90264 72.3115 9.14525C72.4203 9.38787 72.5819 9.60537 72.7855 9.78316C73.2032 10.1503 73.7518 10.3498 74.3182 10.3405C74.8866 10.3511 75.4374 10.1516 75.8565 9.78316C76.062 9.60651 76.2252 9.38935 76.335 9.14656C76.4449 8.90376 76.4987 8.64106 76.4928 8.37644C76.4964 8.11205 76.4433 7.84977 76.3367 7.60593C76.23 7.3621 76.0722 7.14193 75.8731 6.95911C75.6687 6.76539 75.4256 6.61333 75.1584 6.51207C74.8912 6.41081 74.6054 6.36244 74.3182 6.36989ZM76.0723 12.5913H72.4867V27.1786H76.0668L76.0723 12.5913Z" fill="black"/>
<path d="M86.7465 12.209C85.229 12.1777 83.7289 12.5233 82.3917 13.2123C81.1615 13.8592 80.1613 14.8446 79.5199 16.0416C78.8434 17.3446 78.5055 18.7852 78.535 20.2405C78.5173 21.5508 78.8467 22.844 79.4923 23.9988C80.1048 25.0941 81.035 25.9957 82.1704 26.5946C83.3724 27.2177 84.7219 27.5322 86.088 27.5077C87.5901 27.5542 89.0785 27.221 90.404 26.5415H90.4483V23.3884L90.2989 23.4945C89.7582 23.8675 89.1635 24.1626 88.5337 24.3704C87.9844 24.5673 87.4046 24.6749 86.8184 24.6889C86.1992 24.717 85.5807 24.62 85.0031 24.4042C84.4255 24.1884 83.9015 23.8586 83.4652 23.4362C82.5988 22.477 82.1562 21.2316 82.2313 19.9645C82.1727 18.6574 82.647 17.3798 83.5537 16.4026C83.9768 15.9672 84.4917 15.6231 85.0642 15.3934C85.6366 15.1637 86.2535 15.0535 86.8737 15.0702C88.1056 15.0893 89.2986 15.4875 90.2767 16.2062L90.4261 16.3123V12.9999H90.3819C89.8595 12.744 89.2998 12.565 88.7219 12.4691C88.0646 12.3389 87.3955 12.2713 86.7243 12.2674" fill="black"/>
<path d="M96.7344 15.1081V12.5813H93.1543V27.1793H96.7344V19.7104C96.6842 18.6122 96.998 17.5269 97.6308 16.6103C97.8826 16.2442 98.2265 15.9448 98.6307 15.7397C99.0349 15.5347 99.4865 15.4307 99.9437 15.4372C100.307 15.4435 100.668 15.4953 101.017 15.5911C101.314 15.6499 101.597 15.7596 101.853 15.9149L102.008 16.0158V12.5548H101.947C101.311 12.3463 100.63 12.2934 99.9675 12.4009C99.3046 12.5084 98.6802 12.773 98.1509 13.1705C97.5254 13.7003 97.0511 14.3745 96.7731 15.1293L96.7344 15.1081Z" fill="black"/>
<path d="M110.302 12.2095C107.79 12.2095 105.798 12.9102 104.376 14.3063C102.954 15.7024 102.24 17.6187 102.24 20.0287C102.24 22.3113 102.943 24.1533 104.326 25.491C105.71 26.8287 107.602 27.5081 109.937 27.5081C112.366 27.5081 114.319 26.7968 115.742 25.3848C117.164 23.9728 117.861 22.0883 117.861 19.7367C117.861 17.3851 117.186 15.5644 115.852 14.232C114.519 12.8996 112.665 12.2095 110.302 12.2095ZM110.142 24.6682C109.564 24.6951 108.987 24.5975 108.454 24.3825C107.921 24.1676 107.444 23.8407 107.06 23.426C106.266 22.4209 105.873 21.1761 105.953 19.9172C105.868 18.6283 106.26 17.352 107.06 16.3128C107.436 15.8959 107.907 15.5672 108.437 15.3519C108.966 15.1366 109.54 15.0404 110.114 15.0707C110.673 15.0452 111.231 15.1407 111.746 15.3503C112.262 15.5598 112.721 15.8779 113.091 16.281C113.81 17.0825 114.198 18.2875 114.198 19.8535C114.198 21.4195 113.855 22.6563 113.174 23.4685C112.808 23.8838 112.346 24.2108 111.824 24.4229C111.302 24.6349 110.735 24.7263 110.169 24.6894" fill="black"/>
<path d="M125.419 12.2089C123.914 12.1467 122.432 12.5855 121.225 13.4511C120.701 13.8264 120.278 14.3156 119.989 14.8785C119.7 15.4414 119.555 16.062 119.565 16.6892C119.553 17.3094 119.674 17.9254 119.919 18.4993C120.167 19.0323 120.547 19.4989 121.026 19.8583C121.706 20.3457 122.45 20.7438 123.239 21.042C123.862 21.2853 124.468 21.5654 125.054 21.8808C125.367 22.035 125.64 22.2523 125.857 22.5178C126.019 22.7628 126.099 23.0504 126.083 23.3406C126.083 24.3226 125.32 24.8004 123.743 24.8004C123.068 24.7849 122.4 24.6685 121.762 24.4553C121.037 24.2266 120.352 23.8937 119.731 23.468L119.582 23.3618V26.7114H119.637C120.253 26.9693 120.897 27.1616 121.557 27.2847C122.232 27.4238 122.92 27.4985 123.61 27.5076C125.19 27.5858 126.752 27.1459 128.037 26.2602C128.567 25.8719 128.993 25.3689 129.282 24.7923C129.57 24.2157 129.712 23.5818 129.697 22.9424C129.721 22.0312 129.408 21.1413 128.811 20.4316C127.973 19.5967 126.939 18.9653 125.796 18.5896C125.025 18.3444 124.299 17.9863 123.643 17.5279C123.494 17.3792 123.379 17.2024 123.304 17.0087C123.23 16.815 123.199 16.6086 123.212 16.4025C123.205 16.1954 123.252 15.9899 123.348 15.8045C123.445 15.6192 123.588 15.4598 123.765 15.3409C124.216 15.0389 124.76 14.8912 125.309 14.9215C125.932 14.9239 126.551 15.0151 127.146 15.1922C127.714 15.3527 128.255 15.5923 128.751 15.9036L128.894 15.9991V12.8141H128.839C128.315 12.6133 127.769 12.4674 127.212 12.3788C126.623 12.2693 126.025 12.2106 125.425 12.2036" fill="black"/>
<path d="M139.329 12.2095C136.817 12.2095 134.825 12.9102 133.403 14.3063C131.981 15.7024 131.262 17.6187 131.262 20.0287C131.262 22.3113 131.964 24.1533 133.353 25.491C134.742 26.8287 136.624 27.5081 138.959 27.5081C141.393 27.5081 143.347 26.7968 144.769 25.3848C146.191 23.9728 146.904 22.0671 146.904 19.7155C146.904 17.3639 146.229 15.5431 144.901 14.2107C143.573 12.8783 141.692 12.2095 139.329 12.2095ZM139.163 24.6682C138.585 24.6951 138.009 24.5975 137.475 24.3825C136.942 24.1676 136.466 23.8407 136.081 23.426C135.287 22.4209 134.894 21.1761 134.975 19.9172C134.89 18.6283 135.282 17.352 136.081 16.3128C136.456 15.8927 136.926 15.5604 137.456 15.3414C137.985 15.1225 138.56 15.0226 139.136 15.0494C139.694 15.024 140.251 15.1196 140.765 15.3291C141.28 15.5387 141.738 15.8568 142.107 16.2597C142.832 17.0613 143.214 18.2663 143.214 19.8323C143.214 21.3982 142.865 22.6351 142.19 23.4473C141.823 23.8627 141.359 24.1896 140.837 24.4017C140.314 24.6137 139.746 24.705 139.18 24.6682" fill="black"/>
<path d="M166.001 15.3943V12.5808H162.377V8.228L162.255 8.25985L158.847 9.26313H158.78V12.5808H153.407V10.7442C153.355 10.0477 153.565 9.35636 153.999 8.79599C154.208 8.57554 154.465 8.40253 154.752 8.28958C155.04 8.17663 155.349 8.12657 155.659 8.14306C156.204 8.15033 156.742 8.2679 157.236 8.48811L157.369 8.5465V5.59505H157.308C156.656 5.40233 155.976 5.31444 155.294 5.33494C154.3 5.32086 153.318 5.54724 152.439 5.99318C151.614 6.41945 150.934 7.06439 150.48 7.8511C150.006 8.68754 149.766 9.62759 149.783 10.5796V12.5808H147.26V15.3943H149.783V27.1788H153.407V15.3943H158.808V22.8791C158.808 25.9685 160.33 27.5292 163.323 27.5292C163.84 27.5267 164.356 27.4734 164.861 27.3699C165.245 27.3061 165.618 27.1899 165.968 27.0249H166.018V24.1743L165.868 24.2698C165.644 24.4046 165.399 24.5066 165.144 24.5724C164.91 24.6398 164.668 24.679 164.424 24.6892C164.143 24.7144 163.859 24.6799 163.593 24.5882C163.328 24.4964 163.086 24.3497 162.886 24.1584C162.503 23.6064 162.329 22.9448 162.393 22.2845V15.3943H166.001Z" fill="black"/>
<path d="M16.8379 0H0V16.1533H16.8379V0Z" fill="black"/>
<path d="M35.4297 0H18.5918V16.1533H35.4297V0Z" fill="black"/>
<path d="M16.8379 17.8418H0V33.9951H16.8379V17.8418Z" fill="black"/>
<path d="M35.4297 17.8418H18.5918V33.9951H35.4297V17.8418Z" fill="black"/>
</svg>
